<svg width="31" height="31" viewBox="0 0 31 31" fill="none" xmlns="http://www.w3.org/2000/svg">
<mask id="mask0_6102_1260" style="mask-type:luminance" maskUnits="userSpaceOnUse" x="0" y="0" width="31" height="31">
<path d="M30.9999 0H0V30.9999H30.9999V0Z" fill="white"/>
</mask>
<g mask="url(#mask0_6102_1260)">
<path d="M30.9999 0H0V30.9999H30.9999V0Z" fill="#D3F4E0"/>
<path d="M25.0628 30.9955C25.4117 30.9962 25.76 30.9962 26.1089 30.9962C27.6654 30.9962 29.2219 30.9939 30.7791 31C30.9495 31 31.0116 30.9529 30.9988 30.7794C30.9668 30.3521 30.9734 29.9203 30.9159 29.4967C30.7433 28.2257 30.3316 27.031 29.6658 25.9326C28.6518 24.2605 27.306 22.9515 25.4611 22.2252C24.1661 21.7156 22.845 21.632 21.5314 22.1573C20.403 22.6085 19.6326 23.396 19.3195 24.6012C19.1304 25.3282 19.141 26.0701 19.1268 26.8068C19.1013 28.1203 19.1193 29.4338 19.12 30.7474C19.12 30.9946 19.1207 30.9955 19.3659 30.9955C21.2646 30.9955 23.1641 30.9955 25.0628 30.9955ZM5.93872 30.9955C7.83155 30.9955 9.725 30.9955 11.6177 30.9955C11.8748 30.9955 11.8763 30.9946 11.8748 30.7414C11.8658 29.2479 11.8644 27.7543 11.8412 26.2607C11.8337 25.7967 11.8 25.3275 11.7238 24.8701C11.5012 23.5297 10.695 22.6474 9.45823 22.1557C8.03551 21.5894 6.62771 21.7447 5.25208 22.3388C4.21492 22.7863 3.33014 23.4551 2.56802 24.2851C0.893444 26.1127 0.0176544 28.2608 -0.000321079 30.7481C-0.00175094 30.9946 -0.000324348 30.9955 0.241118 30.9955C2.14059 30.9955 4.03925 30.9955 5.93872 30.9955ZM0.0340968 0.0187849C7.00959 3.78219 11.416 9.48081 13.2475 17.1714C13.2646 16.9861 13.2654 16.8038 13.2646 16.6214C13.252 14.5556 13.2445 12.4897 13.2243 10.4237C13.2139 9.35907 13.1077 8.3025 12.9351 7.25124C12.7835 6.32928 12.5667 5.42592 12.2536 4.54584C11.6783 2.92968 10.8145 1.47939 9.73102 0.15401C9.64278 0.0470763 9.55689 9.35057e-05 9.41788 9.35057e-05C6.35501 0.0037703 3.29204 0.00305646 0.229169 0.0037714C0.170851 0.0037714 0.114067 0.0120441 0.0340968 0.0187849ZM30.9555 0.0239939C30.8897 0.0150062 30.8434 0.00305647 30.7963 0.00305647C27.7154 0.00234153 24.6339 0.00152473 21.553 0.00826551C21.4641 0.00826551 21.3483 0.0665827 21.2908 0.136033C19.5108 2.26102 18.431 4.70118 18.0223 7.44029C17.8258 8.75903 17.7451 10.0868 17.7347 11.4183C17.7197 13.2667 17.7302 15.1152 17.7302 16.9637C17.7302 17.0324 17.7302 17.1012 17.7302 17.1699C19.5811 9.48234 23.983 3.7874 30.9555 0.0239939ZM19.4907 18.792C19.5049 18.8032 19.5191 18.8144 19.5333 18.8256C19.5632 18.8077 19.5952 18.7927 19.6229 18.7719C20.9814 17.7579 22.496 17.1341 24.1818 16.9241C25.222 16.794 26.2539 16.824 27.2783 17.0444C28.6638 17.3425 29.7868 18.0627 30.6663 19.1693C30.7627 19.2904 30.8553 19.4151 30.9756 19.5713V9.16777C27.6437 9.85369 24.8387 11.419 22.5454 13.8929C21.2123 15.3304 20.196 16.9667 19.4907 18.792ZM11.4653 18.8264L11.5034 18.7965C11.0767 17.6563 10.5044 16.5894 9.80793 15.5896C8.03704 13.0478 5.7176 11.1851 2.8497 10.0113C1.93806 9.6385 0.998027 9.35907 0.0243917 9.17747V19.5668C0.203737 19.3359 0.347235 19.1334 0.50932 18.9466C1.60705 17.6855 3.01557 17.0414 4.66175 16.8897C5.64509 16.7985 6.62322 16.8441 7.59317 17.0518C8.71102 17.2909 9.75492 17.7078 10.718 18.3228C10.9714 18.4842 11.2173 18.659 11.4668 18.8271L11.4653 18.8264Z" fill="white"/>
<path d="M25.0629 30.9954C23.1642 30.9954 21.2648 30.9954 19.366 30.9954C19.1209 30.9954 19.1202 30.9938 19.1202 30.7473C19.1202 29.4337 19.1015 28.1195 19.1269 26.8067C19.1411 26.07 19.1306 25.3281 19.3196 24.6011C19.6328 23.3959 20.4032 22.6084 21.5315 22.1571C22.8452 21.6319 24.1663 21.7155 25.4612 22.2251C27.3062 22.9513 28.652 24.2604 29.6659 25.9325C30.3317 27.0308 30.7434 28.2248 30.916 29.4965C30.9735 29.9201 30.9668 30.352 30.999 30.7793C31.0125 30.9528 30.9505 31.0006 30.7793 30.9997C29.2228 30.9938 27.6663 30.9961 26.109 30.9961C25.7602 30.9961 25.4119 30.9954 25.0629 30.9954Z" fill="#00481D"/>
<path d="M25.0629 30.9954C23.1642 30.9954 21.2648 30.9954 19.366 30.9954C19.1209 30.9954 19.1202 30.9938 19.1202 30.7473C19.1202 29.4337 19.1015 28.1195 19.1269 26.8067C19.1411 26.07 19.1306 25.3281 19.3196 24.6011C19.6328 23.3959 20.4032 22.6084 21.5315 22.1571C22.8452 21.6319 24.1663 21.7155 25.4612 22.2251C27.3062 22.9513 28.652 24.2604 29.6659 25.9325C30.3317 27.0308 30.7434 28.2248 30.916 29.4965C30.9735 29.9201 30.9668 30.352 30.999 30.7793C31.0125 30.9528 30.9505 31.0006 30.7793 30.9997C29.2228 30.9938 27.6663 30.9961 26.109 30.9961C25.7602 30.9961 25.4119 30.9954 25.0629 30.9954Z" fill="black" fill-opacity="0.2"/>
<path d="M25.0629 30.9954C23.1642 30.9954 21.2648 30.9954 19.366 30.9954C19.1209 30.9954 19.1202 30.9938 19.1202 30.7473C19.1202 29.4337 19.1015 28.1195 19.1269 26.8067C19.1411 26.07 19.1306 25.3281 19.3196 24.6011C19.6328 23.3959 20.4032 22.6084 21.5315 22.1571C22.8452 21.6319 24.1663 21.7155 25.4612 22.2251C27.3062 22.9513 28.652 24.2604 29.6659 25.9325C30.3317 27.0308 30.7434 28.2248 30.916 29.4965C30.9735 29.9201 30.9668 30.352 30.999 30.7793C31.0125 30.9528 30.9505 31.0006 30.7793 30.9997C29.2228 30.9938 27.6663 30.9961 26.109 30.9961C25.7602 30.9961 25.4119 30.9954 25.0629 30.9954Z" fill="black" fill-opacity="0.2"/>
<path d="M25.0629 30.9954C23.1642 30.9954 21.2648 30.9954 19.366 30.9954C19.1209 30.9954 19.1202 30.9938 19.1202 30.7473C19.1202 29.4337 19.1015 28.1195 19.1269 26.8067C19.1411 26.07 19.1306 25.3281 19.3196 24.6011C19.6328 23.3959 20.4032 22.6084 21.5315 22.1571C22.8452 21.6319 24.1663 21.7155 25.4612 22.2251C27.3062 22.9513 28.652 24.2604 29.6659 25.9325C30.3317 27.0308 30.7434 28.2248 30.916 29.4965C30.9735 29.9201 30.9668 30.352 30.999 30.7793C31.0125 30.9528 30.9505 31.0006 30.7793 30.9997C29.2228 30.9938 27.6663 30.9961 26.109 30.9961C25.7602 30.9961 25.4119 30.9954 25.0629 30.9954Z" fill="black" fill-opacity="0.2"/>
<path d="M25.0629 30.9954C23.1642 30.9954 21.2648 30.9954 19.366 30.9954C19.1209 30.9954 19.1202 30.9938 19.1202 30.7473C19.1202 29.4337 19.1015 28.1195 19.1269 26.8067C19.1411 26.07 19.1306 25.3281 19.3196 24.6011C19.6328 23.3959 20.4032 22.6084 21.5315 22.1571C22.8452 21.6319 24.1663 21.7155 25.4612 22.2251C27.3062 22.9513 28.652 24.2604 29.6659 25.9325C30.3317 27.0308 30.7434 28.2248 30.916 29.4965C30.9735 29.9201 30.9668 30.352 30.999 30.7793C31.0125 30.9528 30.9505 31.0006 30.7793 30.9997C29.2228 30.9938 27.6663 30.9961 26.109 30.9961C25.7602 30.9961 25.4119 30.9954 25.0629 30.9954Z" fill="black" fill-opacity="0.2"/>
<path d="M25.0629 30.9954C23.1642 30.9954 21.2648 30.9954 19.366 30.9954C19.1209 30.9954 19.1202 30.9938 19.1202 30.7473C19.1202 29.4337 19.1015 28.1195 19.1269 26.8067C19.1411 26.07 19.1306 25.3281 19.3196 24.6011C19.6328 23.3959 20.4032 22.6084 21.5315 22.1571C22.8452 21.6319 24.1663 21.7155 25.4612 22.2251C27.3062 22.9513 28.652 24.2604 29.6659 25.9325C30.3317 27.0308 30.7434 28.2248 30.916 29.4965C30.9735 29.9201 30.9668 30.352 30.999 30.7793C31.0125 30.9528 30.9505 31.0006 30.7793 30.9997C29.2228 30.9938 27.6663 30.9961 26.109 30.9961C25.7602 30.9961 25.4119 30.9954 25.0629 30.9954Z" fill="black" fill-opacity="0.2"/>
<path d="M25.0629 30.9954C23.1642 30.9954 21.2648 30.9954 19.366 30.9954C19.1209 30.9954 19.1202 30.9938 19.1202 30.7473C19.1202 29.4337 19.1015 28.1195 19.1269 26.8067C19.1411 26.07 19.1306 25.3281 19.3196 24.6011C19.6328 23.3959 20.4032 22.6084 21.5315 22.1571C22.8452 21.6319 24.1663 21.7155 25.4612 22.2251C27.3062 22.9513 28.652 24.2604 29.6659 25.9325C30.3317 27.0308 30.7434 28.2248 30.916 29.4965C30.9735 29.9201 30.9668 30.352 30.999 30.7793C31.0125 30.9528 30.9505 31.0006 30.7793 30.9997C29.2228 30.9938 27.6663 30.9961 26.109 30.9961C25.7602 30.9961 25.4119 30.9954 25.0629 30.9954Z" fill="black" fill-opacity="0.2"/>
<path d="M25.0629 30.9954C23.1642 30.9954 21.2648 30.9954 19.366 30.9954C19.1209 30.9954 19.1202 30.9938 19.1202 30.7473C19.1202 29.4337 19.1015 28.1195 19.1269 26.8067C19.1411 26.07 19.1306 25.3281 19.3196 24.6011C19.6328 23.3959 20.4032 22.6084 21.5315 22.1571C22.8452 21.6319 24.1663 21.7155 25.4612 22.2251C27.3062 22.9513 28.652 24.2604 29.6659 25.9325C30.3317 27.0308 30.7434 28.2248 30.916 29.4965C30.9735 29.9201 30.9668 30.352 30.999 30.7793C31.0125 30.9528 30.9505 31.0006 30.7793 30.9997C29.2228 30.9938 27.6663 30.9961 26.109 30.9961C25.7602 30.9961 25.4119 30.9954 25.0629 30.9954Z" fill="black" fill-opacity="0.2"/>
<path d="M25.0629 30.9954C23.1642 30.9954 21.2648 30.9954 19.366 30.9954C19.1209 30.9954 19.1202 30.9938 19.1202 30.7473C19.1202 29.4337 19.1015 28.1195 19.1269 26.8067C19.1411 26.07 19.1306 25.3281 19.3196 24.6011C19.6328 23.3959 20.4032 22.6084 21.5315 22.1571C22.8452 21.6319 24.1663 21.7155 25.4612 22.2251C27.3062 22.9513 28.652 24.2604 29.6659 25.9325C30.3317 27.0308 30.7434 28.2248 30.916 29.4965C30.9735 29.9201 30.9668 30.352 30.999 30.7793C31.0125 30.9528 30.9505 31.0006 30.7793 30.9997C29.2228 30.9938 27.6663 30.9961 26.109 30.9961C25.7602 30.9961 25.4119 30.9954 25.0629 30.9954Z" fill="black" fill-opacity="0.2"/>
<path d="M25.0629 30.9954C23.1642 30.9954 21.2648 30.9954 19.366 30.9954C19.1209 30.9954 19.1202 30.9938 19.1202 30.7473C19.1202 29.4337 19.1015 28.1195 19.1269 26.8067C19.1411 26.07 19.1306 25.3281 19.3196 24.6011C19.6328 23.3959 20.4032 22.6084 21.5315 22.1571C22.8452 21.6319 24.1663 21.7155 25.4612 22.2251C27.3062 22.9513 28.652 24.2604 29.6659 25.9325C30.3317 27.0308 30.7434 28.2248 30.916 29.4965C30.9735 29.9201 30.9668 30.352 30.999 30.7793C31.0125 30.9528 30.9505 31.0006 30.7793 30.9997C29.2228 30.9938 27.6663 30.9961 26.109 30.9961C25.7602 30.9961 25.4119 30.9954 25.0629 30.9954Z" fill="black" fill-opacity="0.2"/>
<path d="M25.0629 30.9954C23.1642 30.9954 21.2648 30.9954 19.366 30.9954C19.1209 30.9954 19.1202 30.9938 19.1202 30.7473C19.1202 29.4337 19.1015 28.1195 19.1269 26.8067C19.1411 26.07 19.1306 25.3281 19.3196 24.6011C19.6328 23.3959 20.4032 22.6084 21.5315 22.1571C22.8452 21.6319 24.1663 21.7155 25.4612 22.2251C27.3062 22.9513 28.652 24.2604 29.6659 25.9325C30.3317 27.0308 30.7434 28.2248 30.916 29.4965C30.9735 29.9201 30.9668 30.352 30.999 30.7793C31.0125 30.9528 30.9505 31.0006 30.7793 30.9997C29.2228 30.9938 27.6663 30.9961 26.109 30.9961C25.7602 30.9961 25.4119 30.9954 25.0629 30.9954Z" fill="black" fill-opacity="0.2"/>
<path d="M5.93888 30.9963C4.03941 30.9963 2.14065 30.9963 0.241176 30.9963C-0.000164396 30.9963 -0.00241276 30.9955 -0.000165835 30.7489C0.0178096 28.2616 0.892784 26.1135 2.56889 24.2859C3.33029 23.4551 4.21579 22.7871 5.25295 22.3396C6.62858 21.7456 8.03638 21.5902 9.4591 22.1566C10.6958 22.649 11.5014 23.5306 11.7247 24.871C11.8009 25.3282 11.8346 25.7975 11.8421 26.2615C11.8653 27.755 11.8667 29.2486 11.8757 30.7422C11.8772 30.9955 11.8757 30.9963 11.6186 30.9963C9.72587 30.9963 7.83171 30.9963 5.93888 30.9963Z" fill="#00481D"/>
<path d="M5.93888 30.9963C4.03941 30.9963 2.14065 30.9963 0.241176 30.9963C-0.000164396 30.9963 -0.00241276 30.9955 -0.000165835 30.7489C0.0178096 28.2616 0.892784 26.1135 2.56889 24.2859C3.33029 23.4551 4.21579 22.7871 5.25295 22.3396C6.62858 21.7456 8.03638 21.5902 9.4591 22.1566C10.6958 22.649 11.5014 23.5306 11.7247 24.871C11.8009 25.3282 11.8346 25.7975 11.8421 26.2615C11.8653 27.755 11.8667 29.2486 11.8757 30.7422C11.8772 30.9955 11.8757 30.9963 11.6186 30.9963C9.72587 30.9963 7.83171 30.9963 5.93888 30.9963Z" fill="black" fill-opacity="0.2"/>
<path d="M5.93888 30.9963C4.03941 30.9963 2.14065 30.9963 0.241176 30.9963C-0.000164396 30.9963 -0.00241276 30.9955 -0.000165835 30.7489C0.0178096 28.2616 0.892784 26.1135 2.56889 24.2859C3.33029 23.4551 4.21579 22.7871 5.25295 22.3396C6.62858 21.7456 8.03638 21.5902 9.4591 22.1566C10.6958 22.649 11.5014 23.5306 11.7247 24.871C11.8009 25.3282 11.8346 25.7975 11.8421 26.2615C11.8653 27.755 11.8667 29.2486 11.8757 30.7422C11.8772 30.9955 11.8757 30.9963 11.6186 30.9963C9.72587 30.9963 7.83171 30.9963 5.93888 30.9963Z" fill="black" fill-opacity="0.2"/>
<path d="M5.93888 30.9963C4.03941 30.9963 2.14065 30.9963 0.241176 30.9963C-0.000164396 30.9963 -0.00241276 30.9955 -0.000165835 30.7489C0.0178096 28.2616 0.892784 26.1135 2.56889 24.2859C3.33029 23.4551 4.21579 22.7871 5.25295 22.3396C6.62858 21.7456 8.03638 21.5902 9.4591 22.1566C10.6958 22.649 11.5014 23.5306 11.7247 24.871C11.8009 25.3282 11.8346 25.7975 11.8421 26.2615C11.8653 27.755 11.8667 29.2486 11.8757 30.7422C11.8772 30.9955 11.8757 30.9963 11.6186 30.9963C9.72587 30.9963 7.83171 30.9963 5.93888 30.9963Z" fill="black" fill-opacity="0.2"/>
<path d="M5.93888 30.9963C4.03941 30.9963 2.14065 30.9963 0.241176 30.9963C-0.000164396 30.9963 -0.00241276 30.9955 -0.000165835 30.7489C0.0178096 28.2616 0.892784 26.1135 2.56889 24.2859C3.33029 23.4551 4.21579 22.7871 5.25295 22.3396C6.62858 21.7456 8.03638 21.5902 9.4591 22.1566C10.6958 22.649 11.5014 23.5306 11.7247 24.871C11.8009 25.3282 11.8346 25.7975 11.8421 26.2615C11.8653 27.755 11.8667 29.2486 11.8757 30.7422C11.8772 30.9955 11.8757 30.9963 11.6186 30.9963C9.72587 30.9963 7.83171 30.9963 5.93888 30.9963Z" fill="black" fill-opacity="0.2"/>
<path d="M5.93888 30.9963C4.03941 30.9963 2.14065 30.9963 0.241176 30.9963C-0.000164396 30.9963 -0.00241276 30.9955 -0.000165835 30.7489C0.0178096 28.2616 0.892784 26.1135 2.56889 24.2859C3.33029 23.4551 4.21579 22.7871 5.25295 22.3396C6.62858 21.7456 8.03638 21.5902 9.4591 22.1566C10.6958 22.649 11.5014 23.5306 11.7247 24.871C11.8009 25.3282 11.8346 25.7975 11.8421 26.2615C11.8653 27.755 11.8667 29.2486 11.8757 30.7422C11.8772 30.9955 11.8757 30.9963 11.6186 30.9963C9.72587 30.9963 7.83171 30.9963 5.93888 30.9963Z" fill="black" fill-opacity="0.2"/>
<path d="M5.93888 30.9963C4.03941 30.9963 2.14065 30.9963 0.241176 30.9963C-0.000164396 30.9963 -0.00241276 30.9955 -0.000165835 30.7489C0.0178096 28.2616 0.892784 26.1135 2.56889 24.2859C3.33029 23.4551 4.21579 22.7871 5.25295 22.3396C6.62858 21.7456 8.03638 21.5902 9.4591 22.1566C10.6958 22.649 11.5014 23.5306 11.7247 24.871C11.8009 25.3282 11.8346 25.7975 11.8421 26.2615C11.8653 27.755 11.8667 29.2486 11.8757 30.7422C11.8772 30.9955 11.8757 30.9963 11.6186 30.9963C9.72587 30.9963 7.83171 30.9963 5.93888 30.9963Z" fill="black" fill-opacity="0.2"/>
<path d="M5.93888 30.9963C4.03941 30.9963 2.14065 30.9963 0.241176 30.9963C-0.000164396 30.9963 -0.00241276 30.9955 -0.000165835 30.7489C0.0178096 28.2616 0.892784 26.1135 2.56889 24.2859C3.33029 23.4551 4.21579 22.7871 5.25295 22.3396C6.62858 21.7456 8.03638 21.5902 9.4591 22.1566C10.6958 22.649 11.5014 23.5306 11.7247 24.871C11.8009 25.3282 11.8346 25.7975 11.8421 26.2615C11.8653 27.755 11.8667 29.2486 11.8757 30.7422C11.8772 30.9955 11.8757 30.9963 11.6186 30.9963C9.72587 30.9963 7.83171 30.9963 5.93888 30.9963Z" fill="black" fill-opacity="0.2"/>
<path d="M5.93888 30.9963C4.03941 30.9963 2.14065 30.9963 0.241176 30.9963C-0.000164396 30.9963 -0.00241276 30.9955 -0.000165835 30.7489C0.0178096 28.2616 0.892784 26.1135 2.56889 24.2859C3.33029 23.4551 4.21579 22.7871 5.25295 22.3396C6.62858 21.7456 8.03638 21.5902 9.4591 22.1566C10.6958 22.649 11.5014 23.5306 11.7247 24.871C11.8009 25.3282 11.8346 25.7975 11.8421 26.2615C11.8653 27.755 11.8667 29.2486 11.8757 30.7422C11.8772 30.9955 11.8757 30.9963 11.6186 30.9963C9.72587 30.9963 7.83171 30.9963 5.93888 30.9963Z" fill="black" fill-opacity="0.2"/>
<path d="M5.93888 30.9963C4.03941 30.9963 2.14065 30.9963 0.241176 30.9963C-0.000164396 30.9963 -0.00241276 30.9955 -0.000165835 30.7489C0.0178096 28.2616 0.892784 26.1135 2.56889 24.2859C3.33029 23.4551 4.21579 22.7871 5.25295 22.3396C6.62858 21.7456 8.03638 21.5902 9.4591 22.1566C10.6958 22.649 11.5014 23.5306 11.7247 24.871C11.8009 25.3282 11.8346 25.7975 11.8421 26.2615C11.8653 27.755 11.8667 29.2486 11.8757 30.7422C11.8772 30.9955 11.8757 30.9963 11.6186 30.9963C9.72587 30.9963 7.83171 30.9963 5.93888 30.9963Z" fill="black" fill-opacity="0.2"/>
<path d="M5.93888 30.9963C4.03941 30.9963 2.14065 30.9963 0.241176 30.9963C-0.000164396 30.9963 -0.00241276 30.9955 -0.000165835 30.7489C0.0178096 28.2616 0.892784 26.1135 2.56889 24.2859C3.33029 23.4551 4.21579 22.7871 5.25295 22.3396C6.62858 21.7456 8.03638 21.5902 9.4591 22.1566C10.6958 22.649 11.5014 23.5306 11.7247 24.871C11.8009 25.3282 11.8346 25.7975 11.8421 26.2615C11.8653 27.755 11.8667 29.2486 11.8757 30.7422C11.8772 30.9955 11.8757 30.9963 11.6186 30.9963C9.72587 30.9963 7.83171 30.9963 5.93888 30.9963Z" fill="black" fill-opacity="0.2"/>
<path d="M0.0349088 0.0186894C0.114062 0.0126636 0.172379 0.00377919 0.22988 0.00377919C3.29285 0.00296212 6.35573 0.00377893 9.4187 0C9.55842 0 9.64431 0.047083 9.73174 0.153914C10.8153 1.4794 11.6791 2.92959 12.2544 4.54574C12.5676 5.42593 12.7843 6.32919 12.936 7.25125C13.1086 8.3025 13.2147 9.35969 13.2251 10.4237C13.2453 12.4896 13.2528 14.5555 13.2654 16.6215C13.2663 16.8038 13.2654 16.9861 13.2483 17.1713C11.4168 9.48081 7.00958 3.78219 0.0349088 0.0186894Z" fill="#00481D"/>
<path d="M0.0349088 0.0186894C0.114062 0.0126636 0.172379 0.00377919 0.22988 0.00377919C3.29285 0.00296212 6.35573 0.00377893 9.4187 0C9.55842 0 9.64431 0.047083 9.73174 0.153914C10.8153 1.4794 11.6791 2.92959 12.2544 4.54574C12.5676 5.42593 12.7843 6.32919 12.936 7.25125C13.1086 8.3025 13.2147 9.35969 13.2251 10.4237C13.2453 12.4896 13.2528 14.5555 13.2654 16.6215C13.2663 16.8038 13.2654 16.9861 13.2483 17.1713C11.4168 9.48081 7.00958 3.78219 0.0349088 0.0186894Z" fill="black" fill-opacity="0.2"/>
<path d="M0.0349088 0.0186894C0.114062 0.0126636 0.172379 0.00377919 0.22988 0.00377919C3.29285 0.00296212 6.35573 0.00377893 9.4187 0C9.55842 0 9.64431 0.047083 9.73174 0.153914C10.8153 1.4794 11.6791 2.92959 12.2544 4.54574C12.5676 5.42593 12.7843 6.32919 12.936 7.25125C13.1086 8.3025 13.2147 9.35969 13.2251 10.4237C13.2453 12.4896 13.2528 14.5555 13.2654 16.6215C13.2663 16.8038 13.2654 16.9861 13.2483 17.1713C11.4168 9.48081 7.00958 3.78219 0.0349088 0.0186894Z" fill="black" fill-opacity="0.2"/>
<path d="M0.0349088 0.0186894C0.114062 0.0126636 0.172379 0.00377919 0.22988 0.00377919C3.29285 0.00296212 6.35573 0.00377893 9.4187 0C9.55842 0 9.64431 0.047083 9.73174 0.153914C10.8153 1.4794 11.6791 2.92959 12.2544 4.54574C12.5676 5.42593 12.7843 6.32919 12.936 7.25125C13.1086 8.3025 13.2147 9.35969 13.2251 10.4237C13.2453 12.4896 13.2528 14.5555 13.2654 16.6215C13.2663 16.8038 13.2654 16.9861 13.2483 17.1713C11.4168 9.48081 7.00958 3.78219 0.0349088 0.0186894Z" fill="black" fill-opacity="0.2"/>
<path d="M0.0349088 0.0186894C0.114062 0.0126636 0.172379 0.00377919 0.22988 0.00377919C3.29285 0.00296212 6.35573 0.00377893 9.4187 0C9.55842 0 9.64431 0.047083 9.73174 0.153914C10.8153 1.4794 11.6791 2.92959 12.2544 4.54574C12.5676 5.42593 12.7843 6.32919 12.936 7.25125C13.1086 8.3025 13.2147 9.35969 13.2251 10.4237C13.2453 12.4896 13.2528 14.5555 13.2654 16.6215C13.2663 16.8038 13.2654 16.9861 13.2483 17.1713C11.4168 9.48081 7.00958 3.78219 0.0349088 0.0186894Z" fill="black" fill-opacity="0.2"/>
<path d="M0.0349088 0.0186894C0.114062 0.0126636 0.172379 0.00377919 0.22988 0.00377919C3.29285 0.00296212 6.35573 0.00377893 9.4187 0C9.55842 0 9.64431 0.047083 9.73174 0.153914C10.8153 1.4794 11.6791 2.92959 12.2544 4.54574C12.5676 5.42593 12.7843 6.32919 12.936 7.25125C13.1086 8.3025 13.2147 9.35969 13.2251 10.4237C13.2453 12.4896 13.2528 14.5555 13.2654 16.6215C13.2663 16.8038 13.2654 16.9861 13.2483 17.1713C11.4168 9.48081 7.00958 3.78219 0.0349088 0.0186894Z" fill="black" fill-opacity="0.2"/>
<path d="M0.0349088 0.0186894C0.114062 0.0126636 0.172379 0.00377919 0.22988 0.00377919C3.29285 0.00296212 6.35573 0.00377893 9.4187 0C9.55842 0 9.64431 0.047083 9.73174 0.153914C10.8153 1.4794 11.6791 2.92959 12.2544 4.54574C12.5676 5.42593 12.7843 6.32919 12.936 7.25125C13.1086 8.3025 13.2147 9.35969 13.2251 10.4237C13.2453 12.4896 13.2528 14.5555 13.2654 16.6215C13.2663 16.8038 13.2654 16.9861 13.2483 17.1713C11.4168 9.48081 7.00958 3.78219 0.0349088 0.0186894Z" fill="black" fill-opacity="0.2"/>
<path d="M0.0349088 0.0186894C0.114062 0.0126636 0.172379 0.00377919 0.22988 0.00377919C3.29285 0.00296212 6.35573 0.00377893 9.4187 0C9.55842 0 9.64431 0.047083 9.73174 0.153914C10.8153 1.4794 11.6791 2.92959 12.2544 4.54574C12.5676 5.42593 12.7843 6.32919 12.936 7.25125C13.1086 8.3025 13.2147 9.35969 13.2251 10.4237C13.2453 12.4896 13.2528 14.5555 13.2654 16.6215C13.2663 16.8038 13.2654 16.9861 13.2483 17.1713C11.4168 9.48081 7.00958 3.78219 0.0349088 0.0186894Z" fill="black" fill-opacity="0.2"/>
<path d="M0.0349088 0.0186894C0.114062 0.0126636 0.172379 0.00377919 0.22988 0.00377919C3.29285 0.00296212 6.35573 0.00377893 9.4187 0C9.55842 0 9.64431 0.047083 9.73174 0.153914C10.8153 1.4794 11.6791 2.92959 12.2544 4.54574C12.5676 5.42593 12.7843 6.32919 12.936 7.25125C13.1086 8.3025 13.2147 9.35969 13.2251 10.4237C13.2453 12.4896 13.2528 14.5555 13.2654 16.6215C13.2663 16.8038 13.2654 16.9861 13.2483 17.1713C11.4168 9.48081 7.00958 3.78219 0.0349088 0.0186894Z" fill="black" fill-opacity="0.2"/>
<path d="M0.0349088 0.0186894C0.114062 0.0126636 0.172379 0.00377919 0.22988 0.00377919C3.29285 0.00296212 6.35573 0.00377893 9.4187 0C9.55842 0 9.64431 0.047083 9.73174 0.153914C10.8153 1.4794 11.6791 2.92959 12.2544 4.54574C12.5676 5.42593 12.7843 6.32919 12.936 7.25125C13.1086 8.3025 13.2147 9.35969 13.2251 10.4237C13.2453 12.4896 13.2528 14.5555 13.2654 16.6215C13.2663 16.8038 13.2654 16.9861 13.2483 17.1713C11.4168 9.48081 7.00958 3.78219 0.0349088 0.0186894Z" fill="black" fill-opacity="0.2"/>
<path d="M0.0349088 0.0186894C0.114062 0.0126636 0.172379 0.00377919 0.22988 0.00377919C3.29285 0.00296212 6.35573 0.00377893 9.4187 0C9.55842 0 9.64431 0.047083 9.73174 0.153914C10.8153 1.4794 11.6791 2.92959 12.2544 4.54574C12.5676 5.42593 12.7843 6.32919 12.936 7.25125C13.1086 8.3025 13.2147 9.35969 13.2251 10.4237C13.2453 12.4896 13.2528 14.5555 13.2654 16.6215C13.2663 16.8038 13.2654 16.9861 13.2483 17.1713C11.4168 9.48081 7.00958 3.78219 0.0349088 0.0186894Z" fill="black" fill-opacity="0.2"/>
<path d="M30.9558 0.0240014C23.9834 3.78751 19.5814 9.48234 17.7298 17.1699C17.7298 17.1012 17.7298 17.0324 17.7298 16.9637C17.7298 15.1152 17.7192 13.2668 17.7343 11.4183C17.7447 10.0876 17.8254 8.75914 18.0219 7.4404C18.4306 4.70129 19.5104 2.26102 21.2903 0.136041C21.3486 0.0665902 21.4637 0.00827298 21.5526 0.00827298C24.6335 0.00163433 27.715 0.00234901 30.796 0.00306394C30.8422 0.00306394 30.89 0.0150137 30.9558 0.0240014Z" fill="#00481D"/>
<path d="M30.9558 0.0240014C23.9834 3.78751 19.5814 9.48234 17.7298 17.1699C17.7298 17.1012 17.7298 17.0324 17.7298 16.9637C17.7298 15.1152 17.7192 13.2668 17.7343 11.4183C17.7447 10.0876 17.8254 8.75914 18.0219 7.4404C18.4306 4.70129 19.5104 2.26102 21.2903 0.136041C21.3486 0.0665902 21.4637 0.00827298 21.5526 0.00827298C24.6335 0.00163433 27.715 0.00234901 30.796 0.00306394C30.8422 0.00306394 30.89 0.0150137 30.9558 0.0240014Z" fill="black" fill-opacity="0.2"/>
<path d="M30.9558 0.0240014C23.9834 3.78751 19.5814 9.48234 17.7298 17.1699C17.7298 17.1012 17.7298 17.0324 17.7298 16.9637C17.7298 15.1152 17.7192 13.2668 17.7343 11.4183C17.7447 10.0876 17.8254 8.75914 18.0219 7.4404C18.4306 4.70129 19.5104 2.26102 21.2903 0.136041C21.3486 0.0665902 21.4637 0.00827298 21.5526 0.00827298C24.6335 0.00163433 27.715 0.00234901 30.796 0.00306394C30.8422 0.00306394 30.89 0.0150137 30.9558 0.0240014Z" fill="black" fill-opacity="0.2"/>
<path d="M30.9558 0.0240014C23.9834 3.78751 19.5814 9.48234 17.7298 17.1699C17.7298 17.1012 17.7298 17.0324 17.7298 16.9637C17.7298 15.1152 17.7192 13.2668 17.7343 11.4183C17.7447 10.0876 17.8254 8.75914 18.0219 7.4404C18.4306 4.70129 19.5104 2.26102 21.2903 0.136041C21.3486 0.0665902 21.4637 0.00827298 21.5526 0.00827298C24.6335 0.00163433 27.715 0.00234901 30.796 0.00306394C30.8422 0.00306394 30.89 0.0150137 30.9558 0.0240014Z" fill="black" fill-opacity="0.2"/>
<path d="M30.9558 0.0240014C23.9834 3.78751 19.5814 9.48234 17.7298 17.1699C17.7298 17.1012 17.7298 17.0324 17.7298 16.9637C17.7298 15.1152 17.7192 13.2668 17.7343 11.4183C17.7447 10.0876 17.8254 8.75914 18.0219 7.4404C18.4306 4.70129 19.5104 2.26102 21.2903 0.136041C21.3486 0.0665902 21.4637 0.00827298 21.5526 0.00827298C24.6335 0.00163433 27.715 0.00234901 30.796 0.00306394C30.8422 0.00306394 30.89 0.0150137 30.9558 0.0240014Z" fill="black" fill-opacity="0.2"/>
<path d="M30.9558 0.0240014C23.9834 3.78751 19.5814 9.48234 17.7298 17.1699C17.7298 17.1012 17.7298 17.0324 17.7298 16.9637C17.7298 15.1152 17.7192 13.2668 17.7343 11.4183C17.7447 10.0876 17.8254 8.75914 18.0219 7.4404C18.4306 4.70129 19.5104 2.26102 21.2903 0.136041C21.3486 0.0665902 21.4637 0.00827298 21.5526 0.00827298C24.6335 0.00163433 27.715 0.00234901 30.796 0.00306394C30.8422 0.00306394 30.89 0.0150137 30.9558 0.0240014Z" fill="black" fill-opacity="0.2"/>
<path d="M30.9558 0.0240014C23.9834 3.78751 19.5814 9.48234 17.7298 17.1699C17.7298 17.1012 17.7298 17.0324 17.7298 16.9637C17.7298 15.1152 17.7192 13.2668 17.7343 11.4183C17.7447 10.0876 17.8254 8.75914 18.0219 7.4404C18.4306 4.70129 19.5104 2.26102 21.2903 0.136041C21.3486 0.0665902 21.4637 0.00827298 21.5526 0.00827298C24.6335 0.00163433 27.715 0.00234901 30.796 0.00306394C30.8422 0.00306394 30.89 0.0150137 30.9558 0.0240014Z" fill="black" fill-opacity="0.2"/>
<path d="M30.9558 0.0240014C23.9834 3.78751 19.5814 9.48234 17.7298 17.1699C17.7298 17.1012 17.7298 17.0324 17.7298 16.9637C17.7298 15.1152 17.7192 13.2668 17.7343 11.4183C17.7447 10.0876 17.8254 8.75914 18.0219 7.4404C18.4306 4.70129 19.5104 2.26102 21.2903 0.136041C21.3486 0.0665902 21.4637 0.00827298 21.5526 0.00827298C24.6335 0.00163433 27.715 0.00234901 30.796 0.00306394C30.8422 0.00306394 30.89 0.0150137 30.9558 0.0240014Z" fill="black" fill-opacity="0.2"/>
<path d="M30.9558 0.0240014C23.9834 3.78751 19.5814 9.48234 17.7298 17.1699C17.7298 17.1012 17.7298 17.0324 17.7298 16.9637C17.7298 15.1152 17.7192 13.2668 17.7343 11.4183C17.7447 10.0876 17.8254 8.75914 18.0219 7.4404C18.4306 4.70129 19.5104 2.26102 21.2903 0.136041C21.3486 0.0665902 21.4637 0.00827298 21.5526 0.00827298C24.6335 0.00163433 27.715 0.00234901 30.796 0.00306394C30.8422 0.00306394 30.89 0.0150137 30.9558 0.0240014Z" fill="black" fill-opacity="0.2"/>
<path d="M30.9558 0.0240014C23.9834 3.78751 19.5814 9.48234 17.7298 17.1699C17.7298 17.1012 17.7298 17.0324 17.7298 16.9637C17.7298 15.1152 17.7192 13.2668 17.7343 11.4183C17.7447 10.0876 17.8254 8.75914 18.0219 7.4404C18.4306 4.70129 19.5104 2.26102 21.2903 0.136041C21.3486 0.0665902 21.4637 0.00827298 21.5526 0.00827298C24.6335 0.00163433 27.715 0.00234901 30.796 0.00306394C30.8422 0.00306394 30.89 0.0150137 30.9558 0.0240014Z" fill="black" fill-opacity="0.2"/>
<path d="M30.9558 0.0240014C23.9834 3.78751 19.5814 9.48234 17.7298 17.1699C17.7298 17.1012 17.7298 17.0324 17.7298 16.9637C17.7298 15.1152 17.7192 13.2668 17.7343 11.4183C17.7447 10.0876 17.8254 8.75914 18.0219 7.4404C18.4306 4.70129 19.5104 2.26102 21.2903 0.136041C21.3486 0.0665902 21.4637 0.00827298 21.5526 0.00827298C24.6335 0.00163433 27.715 0.00234901 30.796 0.00306394C30.8422 0.00306394 30.89 0.0150137 30.9558 0.0240014Z" fill="black" fill-opacity="0.2"/>
<path d="M19.4911 18.7919C20.1965 16.9673 21.2127 15.331 22.5458 13.8928C24.8391 11.4189 27.6442 9.85431 30.976 9.16767V19.5697C30.8566 19.4136 30.7639 19.2895 30.6667 19.1677C29.7872 18.0611 28.6642 17.3402 27.2787 17.0427C26.2543 16.8223 25.2224 16.7932 24.1823 16.9225C22.4964 17.1332 20.9818 17.7564 19.6233 18.7702C19.5957 18.7912 19.5636 18.8061 19.5337 18.8241C19.5195 18.8128 19.5053 18.8016 19.4911 18.7904V18.7919Z" fill="#00481D"/>
<path d="M19.4911 18.7919C20.1965 16.9673 21.2127 15.331 22.5458 13.8928C24.8391 11.4189 27.6442 9.85431 30.976 9.16767V19.5697C30.8566 19.4136 30.7639 19.2895 30.6667 19.1677C29.7872 18.0611 28.6642 17.3402 27.2787 17.0427C26.2543 16.8223 25.2224 16.7932 24.1823 16.9225C22.4964 17.1332 20.9818 17.7564 19.6233 18.7702C19.5957 18.7912 19.5636 18.8061 19.5337 18.8241C19.5195 18.8128 19.5053 18.8016 19.4911 18.7904V18.7919Z" fill="black" fill-opacity="0.2"/>
<path d="M19.4911 18.7919C20.1965 16.9673 21.2127 15.331 22.5458 13.8928C24.8391 11.4189 27.6442 9.85431 30.976 9.16767V19.5697C30.8566 19.4136 30.7639 19.2895 30.6667 19.1677C29.7872 18.0611 28.6642 17.3402 27.2787 17.0427C26.2543 16.8223 25.2224 16.7932 24.1823 16.9225C22.4964 17.1332 20.9818 17.7564 19.6233 18.7702C19.5957 18.7912 19.5636 18.8061 19.5337 18.8241C19.5195 18.8128 19.5053 18.8016 19.4911 18.7904V18.7919Z" fill="black" fill-opacity="0.2"/>
<path d="M19.4911 18.7919C20.1965 16.9673 21.2127 15.331 22.5458 13.8928C24.8391 11.4189 27.6442 9.85431 30.976 9.16767V19.5697C30.8566 19.4136 30.7639 19.2895 30.6667 19.1677C29.7872 18.0611 28.6642 17.3402 27.2787 17.0427C26.2543 16.8223 25.2224 16.7932 24.1823 16.9225C22.4964 17.1332 20.9818 17.7564 19.6233 18.7702C19.5957 18.7912 19.5636 18.8061 19.5337 18.8241C19.5195 18.8128 19.5053 18.8016 19.4911 18.7904V18.7919Z" fill="black" fill-opacity="0.2"/>
<path d="M19.4911 18.7919C20.1965 16.9673 21.2127 15.331 22.5458 13.8928C24.8391 11.4189 27.6442 9.85431 30.976 9.16767V19.5697C30.8566 19.4136 30.7639 19.2895 30.6667 19.1677C29.7872 18.0611 28.6642 17.3402 27.2787 17.0427C26.2543 16.8223 25.2224 16.7932 24.1823 16.9225C22.4964 17.1332 20.9818 17.7564 19.6233 18.7702C19.5957 18.7912 19.5636 18.8061 19.5337 18.8241C19.5195 18.8128 19.5053 18.8016 19.4911 18.7904V18.7919Z" fill="black" fill-opacity="0.2"/>
<path d="M19.4911 18.7919C20.1965 16.9673 21.2127 15.331 22.5458 13.8928C24.8391 11.4189 27.6442 9.85431 30.976 9.16767V19.5697C30.8566 19.4136 30.7639 19.2895 30.6667 19.1677C29.7872 18.0611 28.6642 17.3402 27.2787 17.0427C26.2543 16.8223 25.2224 16.7932 24.1823 16.9225C22.4964 17.1332 20.9818 17.7564 19.6233 18.7702C19.5957 18.7912 19.5636 18.8061 19.5337 18.8241C19.5195 18.8128 19.5053 18.8016 19.4911 18.7904V18.7919Z" fill="black" fill-opacity="0.2"/>
<path d="M19.4911 18.7919C20.1965 16.9673 21.2127 15.331 22.5458 13.8928C24.8391 11.4189 27.6442 9.85431 30.976 9.16767V19.5697C30.8566 19.4136 30.7639 19.2895 30.6667 19.1677C29.7872 18.0611 28.6642 17.3402 27.2787 17.0427C26.2543 16.8223 25.2224 16.7932 24.1823 16.9225C22.4964 17.1332 20.9818 17.7564 19.6233 18.7702C19.5957 18.7912 19.5636 18.8061 19.5337 18.8241C19.5195 18.8128 19.5053 18.8016 19.4911 18.7904V18.7919Z" fill="black" fill-opacity="0.2"/>
<path d="M19.4911 18.7919C20.1965 16.9673 21.2127 15.331 22.5458 13.8928C24.8391 11.4189 27.6442 9.85431 30.976 9.16767V19.5697C30.8566 19.4136 30.7639 19.2895 30.6667 19.1677C29.7872 18.0611 28.6642 17.3402 27.2787 17.0427C26.2543 16.8223 25.2224 16.7932 24.1823 16.9225C22.4964 17.1332 20.9818 17.7564 19.6233 18.7702C19.5957 18.7912 19.5636 18.8061 19.5337 18.8241C19.5195 18.8128 19.5053 18.8016 19.4911 18.7904V18.7919Z" fill="black" fill-opacity="0.2"/>
<path d="M19.4911 18.7919C20.1965 16.9673 21.2127 15.331 22.5458 13.8928C24.8391 11.4189 27.6442 9.85431 30.976 9.16767V19.5697C30.8566 19.4136 30.7639 19.2895 30.6667 19.1677C29.7872 18.0611 28.6642 17.3402 27.2787 17.0427C26.2543 16.8223 25.2224 16.7932 24.1823 16.9225C22.4964 17.1332 20.9818 17.7564 19.6233 18.7702C19.5957 18.7912 19.5636 18.8061 19.5337 18.8241C19.5195 18.8128 19.5053 18.8016 19.4911 18.7904V18.7919Z" fill="black" fill-opacity="0.2"/>
<path d="M19.4911 18.7919C20.1965 16.9673 21.2127 15.331 22.5458 13.8928C24.8391 11.4189 27.6442 9.85431 30.976 9.16767V19.5697C30.8566 19.4136 30.7639 19.2895 30.6667 19.1677C29.7872 18.0611 28.6642 17.3402 27.2787 17.0427C26.2543 16.8223 25.2224 16.7932 24.1823 16.9225C22.4964 17.1332 20.9818 17.7564 19.6233 18.7702C19.5957 18.7912 19.5636 18.8061 19.5337 18.8241C19.5195 18.8128 19.5053 18.8016 19.4911 18.7904V18.7919Z" fill="black" fill-opacity="0.2"/>
<path d="M19.4911 18.7919C20.1965 16.9673 21.2127 15.331 22.5458 13.8928C24.8391 11.4189 27.6442 9.85431 30.976 9.16767V19.5697C30.8566 19.4136 30.7639 19.2895 30.6667 19.1677C29.7872 18.0611 28.6642 17.3402 27.2787 17.0427C26.2543 16.8223 25.2224 16.7932 24.1823 16.9225C22.4964 17.1332 20.9818 17.7564 19.6233 18.7702C19.5957 18.7912 19.5636 18.8061 19.5337 18.8241C19.5195 18.8128 19.5053 18.8016 19.4911 18.7904V18.7919Z" fill="black" fill-opacity="0.2"/>
<path d="M11.4654 18.8265C11.2158 18.6576 10.9707 18.4835 10.7167 18.3222C9.75347 17.7072 8.70885 17.291 7.59172 17.0512C6.62258 16.8435 5.64445 16.7987 4.6603 16.889C3.01411 17.0407 1.60559 17.6848 0.50797 18.946C0.345782 19.1321 0.202286 19.3352 0.0229401 19.5662V9.17687C0.996575 9.35917 1.93743 9.63779 2.84825 10.0107C5.71615 11.1845 8.03631 13.0471 9.80658 15.589C10.5029 16.5887 11.0754 17.6549 11.502 18.7959L11.4639 18.8257L11.4654 18.8265Z" fill="#00481D"/>
<path d="M11.4654 18.8265C11.2158 18.6576 10.9707 18.4835 10.7167 18.3222C9.75347 17.7072 8.70885 17.291 7.59172 17.0512C6.62258 16.8435 5.64445 16.7987 4.6603 16.889C3.01411 17.0407 1.60559 17.6848 0.50797 18.946C0.345782 19.1321 0.202286 19.3352 0.0229401 19.5662V9.17687C0.996575 9.35917 1.93743 9.63779 2.84825 10.0107C5.71615 11.1845 8.03631 13.0471 9.80658 15.589C10.5029 16.5887 11.0754 17.6549 11.502 18.7959L11.4639 18.8257L11.4654 18.8265Z" fill="black" fill-opacity="0.2"/>
<path d="M11.4654 18.8265C11.2158 18.6576 10.9707 18.4835 10.7167 18.3222C9.75347 17.7072 8.70885 17.291 7.59172 17.0512C6.62258 16.8435 5.64445 16.7987 4.6603 16.889C3.01411 17.0407 1.60559 17.6848 0.50797 18.946C0.345782 19.1321 0.202286 19.3352 0.0229401 19.5662V9.17687C0.996575 9.35917 1.93743 9.63779 2.84825 10.0107C5.71615 11.1845 8.03631 13.0471 9.80658 15.589C10.5029 16.5887 11.0754 17.6549 11.502 18.7959L11.4639 18.8257L11.4654 18.8265Z" fill="black" fill-opacity="0.2"/>
<path d="M11.4654 18.8265C11.2158 18.6576 10.9707 18.4835 10.7167 18.3222C9.75347 17.7072 8.70885 17.291 7.59172 17.0512C6.62258 16.8435 5.64445 16.7987 4.6603 16.889C3.01411 17.0407 1.60559 17.6848 0.50797 18.946C0.345782 19.1321 0.202286 19.3352 0.0229401 19.5662V9.17687C0.996575 9.35917 1.93743 9.63779 2.84825 10.0107C5.71615 11.1845 8.03631 13.0471 9.80658 15.589C10.5029 16.5887 11.0754 17.6549 11.502 18.7959L11.4639 18.8257L11.4654 18.8265Z" fill="black" fill-opacity="0.2"/>
<path d="M11.4654 18.8265C11.2158 18.6576 10.9707 18.4835 10.7167 18.3222C9.75347 17.7072 8.70885 17.291 7.59172 17.0512C6.62258 16.8435 5.64445 16.7987 4.6603 16.889C3.01411 17.0407 1.60559 17.6848 0.50797 18.946C0.345782 19.1321 0.202286 19.3352 0.0229401 19.5662V9.17687C0.996575 9.35917 1.93743 9.63779 2.84825 10.0107C5.71615 11.1845 8.03631 13.0471 9.80658 15.589C10.5029 16.5887 11.0754 17.6549 11.502 18.7959L11.4639 18.8257L11.4654 18.8265Z" fill="black" fill-opacity="0.2"/>
<path d="M11.4654 18.8265C11.2158 18.6576 10.9707 18.4835 10.7167 18.3222C9.75347 17.7072 8.70885 17.291 7.59172 17.0512C6.62258 16.8435 5.64445 16.7987 4.6603 16.889C3.01411 17.0407 1.60559 17.6848 0.50797 18.946C0.345782 19.1321 0.202286 19.3352 0.0229401 19.5662V9.17687C0.996575 9.35917 1.93743 9.63779 2.84825 10.0107C5.71615 11.1845 8.03631 13.0471 9.80658 15.589C10.5029 16.5887 11.0754 17.6549 11.502 18.7959L11.4639 18.8257L11.4654 18.8265Z" fill="black" fill-opacity="0.2"/>
<path d="M11.4654 18.8265C11.2158 18.6576 10.9707 18.4835 10.7167 18.3222C9.75347 17.7072 8.70885 17.291 7.59172 17.0512C6.62258 16.8435 5.64445 16.7987 4.6603 16.889C3.01411 17.0407 1.60559 17.6848 0.50797 18.946C0.345782 19.1321 0.202286 19.3352 0.0229401 19.5662V9.17687C0.996575 9.35917 1.93743 9.63779 2.84825 10.0107C5.71615 11.1845 8.03631 13.0471 9.80658 15.589C10.5029 16.5887 11.0754 17.6549 11.502 18.7959L11.4639 18.8257L11.4654 18.8265Z" fill="black" fill-opacity="0.2"/>
<path d="M11.4654 18.8265C11.2158 18.6576 10.9707 18.4835 10.7167 18.3222C9.75347 17.7072 8.70885 17.291 7.59172 17.0512C6.62258 16.8435 5.64445 16.7987 4.6603 16.889C3.01411 17.0407 1.60559 17.6848 0.50797 18.946C0.345782 19.1321 0.202286 19.3352 0.0229401 19.5662V9.17687C0.996575 9.35917 1.93743 9.63779 2.84825 10.0107C5.71615 11.1845 8.03631 13.0471 9.80658 15.589C10.5029 16.5887 11.0754 17.6549 11.502 18.7959L11.4639 18.8257L11.4654 18.8265Z" fill="black" fill-opacity="0.2"/>
<path d="M11.4654 18.8265C11.2158 18.6576 10.9707 18.4835 10.7167 18.3222C9.75347 17.7072 8.70885 17.291 7.59172 17.0512C6.62258 16.8435 5.64445 16.7987 4.6603 16.889C3.01411 17.0407 1.60559 17.6848 0.50797 18.946C0.345782 19.1321 0.202286 19.3352 0.0229401 19.5662V9.17687C0.996575 9.35917 1.93743 9.63779 2.84825 10.0107C5.71615 11.1845 8.03631 13.0471 9.80658 15.589C10.5029 16.5887 11.0754 17.6549 11.502 18.7959L11.4639 18.8257L11.4654 18.8265Z" fill="black" fill-opacity="0.2"/>
<path d="M11.4654 18.8265C11.2158 18.6576 10.9707 18.4835 10.7167 18.3222C9.75347 17.7072 8.70885 17.291 7.59172 17.0512C6.62258 16.8435 5.64445 16.7987 4.6603 16.889C3.01411 17.0407 1.60559 17.6848 0.50797 18.946C0.345782 19.1321 0.202286 19.3352 0.0229401 19.5662V9.17687C0.996575 9.35917 1.93743 9.63779 2.84825 10.0107C5.71615 11.1845 8.03631 13.0471 9.80658 15.589C10.5029 16.5887 11.0754 17.6549 11.502 18.7959L11.4639 18.8257L11.4654 18.8265Z" fill="black" fill-opacity="0.2"/>
<path d="M11.4654 18.8265C11.2158 18.6576 10.9707 18.4835 10.7167 18.3222C9.75347 17.7072 8.70885 17.291 7.59172 17.0512C6.62258 16.8435 5.64445 16.7987 4.6603 16.889C3.01411 17.0407 1.60559 17.6848 0.50797 18.946C0.345782 19.1321 0.202286 19.3352 0.0229401 19.5662V9.17687C0.996575 9.35917 1.93743 9.63779 2.84825 10.0107C5.71615 11.1845 8.03631 13.0471 9.80658 15.589C10.5029 16.5887 11.0754 17.6549 11.502 18.7959L11.4639 18.8257L11.4654 18.8265Z" fill="black" fill-opacity="0.2"/>
</g>
</svg>
