<svg width="17" height="17" viewBox="0 0 17 17" fill="none" xmlns="http://www.w3.org/2000/svg">
<path d="M13.75 5.83398C15.3584 5.83398 16.6667 4.52499 16.6667 2.91699C16.6667 1.30899 15.3584 0 13.75 0C12.1417 0 10.8334 1.30899 10.8334 2.91699C10.8334 4.52499 12.1417 5.83398 13.75 5.83398ZM13.75 7.5C14.1667 7.5 14.5834 7.44201 15 7.32501V12.5C15 14.8 13.1334 16.667 10.8334 16.667H4.1667C1.8667 16.667 0 14.8 0 12.5V5.83398C0 3.53398 1.8667 1.66699 4.1667 1.66699H9.3417C9.225 2.08399 9.1667 2.49999 9.1667 2.91699C9.1667 5.44999 11.2167 7.5 13.75 7.5Z" fill="#A3A9B6"/>
</svg>
