<svg width="17" height="17" viewBox="0 0 17 17" fill="none" xmlns="http://www.w3.org/2000/svg">
<path d="M8.10775 11.25C7.33425 11.25 6.59235 10.943 6.04535 10.396C5.49845 9.849 5.19115 9.10705 5.19115 8.33405C5.19115 7.56005 5.49845 6.818 6.04535 6.271C6.59235 5.724 7.33425 5.41699 8.10775 5.41699C8.88135 5.41699 9.62315 5.724 10.1702 6.271C10.7172 6.818 11.0245 7.56005 11.0245 8.33405C11.0245 9.10705 10.7172 9.849 10.1702 10.396C9.62315 10.943 8.88135 11.25 8.10775 11.25ZM14.2995 9.14203C14.3328 8.87503 14.3578 8.60905 14.3578 8.33405C14.3578 8.05905 14.3328 7.784 14.2995 7.5L16.0578 6.14203C16.2162 6.01703 16.2578 5.79201 16.1578 5.60901L14.4912 2.72504C14.3912 2.54204 14.1662 2.46699 13.9828 2.54199L11.9078 3.375C11.4745 3.05 11.0245 2.76702 10.4995 2.55902L10.1912 0.350037C10.1578 0.150037 9.98275 0 9.77445 0H6.44115C6.23275 0 6.05775 0.150037 6.02445 0.350037L5.71615 2.55902C5.19115 2.76702 4.74115 3.05 4.30775 3.375L2.23275 2.54199C2.04945 2.46699 1.82445 2.54204 1.72445 2.72504L0.0577525 5.60901C-0.0505475 5.79201 -0.000545174 6.01703 0.157755 6.14203L1.91615 7.5C1.88275 7.784 1.85775 8.05905 1.85775 8.33405C1.85775 8.60905 1.88275 8.87503 1.91615 9.14203L0.157755 10.525C-0.000545174 10.65 -0.0505475 10.875 0.0577525 11.059L1.72445 13.942C1.82445 14.125 2.04945 14.192 2.23275 14.125L4.30775 13.284C4.74115 13.617 5.19115 13.9 5.71615 14.109L6.02445 16.317C6.05775 16.517 6.23275 16.667 6.44115 16.667H9.77445C9.98275 16.667 10.1578 16.517 10.1912 16.317L10.4995 14.109C11.0245 13.892 11.4745 13.617 11.9078 13.284L13.9828 14.125C14.1662 14.192 14.3912 14.125 14.4912 13.942L16.1578 11.059C16.2578 10.875 16.2162 10.65 16.0578 10.525L14.2995 9.14203Z" fill="#A3A9B6"/>
</svg>
