<svg width="20" height="20" viewBox="0 0 20 20" fill="none" xmlns="http://www.w3.org/2000/svg">
<path d="M17.8333 6.25004C18.5 6.91671 18.5 8.00004 17.8333 8.58337L15.5 10.9167L8.99996 4.41671L11.3333 2.08337C12 1.41671 13.0833 1.41671 13.6666 2.08337L15.1666 3.58337L17.6666 1.08337L18.8333 2.25004L16.3333 4.75004L17.8333 6.25004ZM13 11.0834L11.8333 9.91671L9.49996 12.25L7.74996 10.5L10.0833 8.16671L8.91663 7.00004L6.58329 9.33337L5.33329 8.16671L2.99996 10.5C2.33329 11.1667 2.33329 12.25 2.99996 12.8334L4.49996 14.3334L1.16663 17.6667L2.33329 18.8334L5.66663 15.5L7.16663 17C7.83329 17.6667 8.91663 17.6667 9.49996 17L11.8333 14.6667L10.6666 13.5L13 11.0834Z" fill="currentColor"/>
</svg>
