<svg width="20" height="20" viewBox="0 0 20 20" fill="none" xmlns="http://www.w3.org/2000/svg">
<path d="M12.0286 3.61153V1.66663H5.56208C4.79123 1.66663 4.16663 2.29168 4.16663 3.06208V16.2304C4.16663 17.0013 4.79123 17.6259 5.56208 17.6259H13.8875C14.6584 17.6259 15.283 17.0008 15.283 16.2304V4.92103H13.3381C12.6158 4.92103 12.0286 4.33333 12.0286 3.61153ZM12.9119 13.512H6.53768C6.47063 13.512 6.41663 13.458 6.41663 13.3909V12.9301C6.41663 12.8631 6.47108 12.8091 6.53768 12.8091H12.9119C12.979 12.8091 13.033 12.8635 13.033 12.9301V13.3909C13.033 13.458 12.9785 13.512 12.9119 13.512ZM12.9119 10.8741H6.53768C6.47063 10.8741 6.41663 10.8196 6.41663 10.7526V10.2922C6.41663 10.2252 6.47108 10.1712 6.53768 10.1712H12.9119C12.979 10.1712 13.033 10.2256 13.033 10.2922V10.7526C13.033 10.8196 12.9785 10.8741 12.9119 10.8741ZM12.9119 8.23663H6.53768C6.47063 8.23663 6.41663 8.18218 6.41663 8.11558V7.65478C6.41663 7.58773 6.47108 7.53373 6.53768 7.53373H12.9119C12.979 7.53373 13.033 7.58818 13.033 7.65478V8.11558C13.033 8.18263 12.9785 8.23663 12.9119 8.23663Z" fill="currentColor"/>
</svg>
