<svg width="27" height="27" viewBox="0 0 27 27" fill="none" xmlns="http://www.w3.org/2000/svg">
<path d="M6.5625 6.5625H6.57344M6.5625 19.6875H6.57344M4.375 2.1875H21.875C23.0831 2.1875 24.0625 3.16688 24.0625 4.375V8.75C24.0625 9.95812 23.0831 10.9375 21.875 10.9375H4.375C3.16688 10.9375 2.1875 9.95812 2.1875 8.75V4.375C2.1875 3.16688 3.16688 2.1875 4.375 2.1875ZM4.375 15.3125H21.875C23.0831 15.3125 24.0625 16.2919 24.0625 17.5V21.875C24.0625 23.0831 23.0831 24.0625 21.875 24.0625H4.375C3.16688 24.0625 2.1875 23.0831 2.1875 21.875V17.5C2.1875 16.2919 3.16688 15.3125 4.375 15.3125Z" stroke="#1873DE" stroke-width="2.1875" stroke-linecap="round" stroke-linejoin="round"/>
</svg>
