<svg width="20" height="20" viewBox="0 0 20 20" fill="none" xmlns="http://www.w3.org/2000/svg">
<path d="M18.0861 14.6816L11.5787 3.42086C10.8771 2.19305 9.12306 2.19305 8.40391 3.42086L1.91405 14.6816C1.21244 15.8919 2.08945 17.4179 3.49266 17.4179H16.4899C17.9107 17.4179 18.7877 15.8919 18.0861 14.6816ZM10.0001 6.22729C10.5613 6.22729 10.9999 6.68333 10.9999 7.22707V7.29724L10.6666 12.3137C10.6491 12.6645 10.3509 12.9452 10.0001 12.9452C9.64926 12.9452 9.35108 12.6645 9.33354 12.3137L9.00027 7.29724C8.96519 6.71841 9.42124 6.22729 10.0001 6.22729ZM10.0001 15.5937C9.42124 15.5937 8.94765 15.1201 8.94765 14.5413C8.94765 13.9625 9.42124 13.4889 10.0001 13.4889C10.5789 13.4889 11.0525 13.9625 11.0525 14.5413C11.0525 15.1201 10.5789 15.5937 10.0001 15.5937Z" fill="currentColor"/>
</svg>
