<svg width="20" height="20" viewBox="0 0 20 20" fill="none" xmlns="http://www.w3.org/2000/svg">
<path d="M16.2501 1.7417L17.4251 2.9167L13.6751 6.6667H16.6667V8.33337H10.8334V2.50003H12.5001V5.4917L16.2501 1.7417ZM17.4251 15.4167L16.2501 16.5917L12.5001 12.8417V15.8334H10.8334V10H16.6667V11.6667H13.6751L17.4251 15.4167ZM3.75007 1.7417L7.50007 5.4917V2.50003H9.16674V8.33337H3.33341V6.6667H6.32507L2.57507 2.9167L3.75007 1.7417ZM2.57507 15.4167L6.32507 11.6667H3.33341V10H9.16674V15.8334H7.50007V12.8417L3.75007 16.5917L2.57507 15.4167Z" fill="currentColor"/>
<path d="M16.2501 1.7417L17.4251 2.9167L13.6751 6.6667H16.6667V8.33337H10.8334V2.50003H12.5001V5.4917L16.2501 1.7417ZM17.4251 15.4167L16.2501 16.5917L12.5001 12.8417V15.8334H10.8334V10H16.6667V11.6667H13.6751L17.4251 15.4167ZM3.75007 1.7417L7.50007 5.4917V2.50003H9.16674V8.33337H3.33341V6.6667H6.32507L2.57507 2.9167L3.75007 1.7417ZM2.57507 15.4167L6.32507 11.6667H3.33341V10H9.16674V15.8334H7.50007V12.8417L3.75007 16.5917L2.57507 15.4167Z" fill="currentColor" fill-opacity="0.2"/>
<path d="M16.2501 1.7417L17.4251 2.9167L13.6751 6.6667H16.6667V8.33337H10.8334V2.50003H12.5001V5.4917L16.2501 1.7417ZM17.4251 15.4167L16.2501 16.5917L12.5001 12.8417V15.8334H10.8334V10H16.6667V11.6667H13.6751L17.4251 15.4167ZM3.75007 1.7417L7.50007 5.4917V2.50003H9.16674V8.33337H3.33341V6.6667H6.32507L2.57507 2.9167L3.75007 1.7417ZM2.57507 15.4167L6.32507 11.6667H3.33341V10H9.16674V15.8334H7.50007V12.8417L3.75007 16.5917L2.57507 15.4167Z" fill="currentColor" fill-opacity="0.2"/>
<path d="M16.2501 1.7417L17.4251 2.9167L13.6751 6.6667H16.6667V8.33337H10.8334V2.50003H12.5001V5.4917L16.2501 1.7417ZM17.4251 15.4167L16.2501 16.5917L12.5001 12.8417V15.8334H10.8334V10H16.6667V11.6667H13.6751L17.4251 15.4167ZM3.75007 1.7417L7.50007 5.4917V2.50003H9.16674V8.33337H3.33341V6.6667H6.32507L2.57507 2.9167L3.75007 1.7417ZM2.57507 15.4167L6.32507 11.6667H3.33341V10H9.16674V15.8334H7.50007V12.8417L3.75007 16.5917L2.57507 15.4167Z" fill="currentColor" fill-opacity="0.2"/>
<path d="M16.2501 1.7417L17.4251 2.9167L13.6751 6.6667H16.6667V8.33337H10.8334V2.50003H12.5001V5.4917L16.2501 1.7417ZM17.4251 15.4167L16.2501 16.5917L12.5001 12.8417V15.8334H10.8334V10H16.6667V11.6667H13.6751L17.4251 15.4167ZM3.75007 1.7417L7.50007 5.4917V2.50003H9.16674V8.33337H3.33341V6.6667H6.32507L2.57507 2.9167L3.75007 1.7417ZM2.57507 15.4167L6.32507 11.6667H3.33341V10H9.16674V15.8334H7.50007V12.8417L3.75007 16.5917L2.57507 15.4167Z" fill="currentColor" fill-opacity="0.2"/>
<path d="M16.2501 1.7417L17.4251 2.9167L13.6751 6.6667H16.6667V8.33337H10.8334V2.50003H12.5001V5.4917L16.2501 1.7417ZM17.4251 15.4167L16.2501 16.5917L12.5001 12.8417V15.8334H10.8334V10H16.6667V11.6667H13.6751L17.4251 15.4167ZM3.75007 1.7417L7.50007 5.4917V2.50003H9.16674V8.33337H3.33341V6.6667H6.32507L2.57507 2.9167L3.75007 1.7417ZM2.57507 15.4167L6.32507 11.6667H3.33341V10H9.16674V15.8334H7.50007V12.8417L3.75007 16.5917L2.57507 15.4167Z" fill="currentColor" fill-opacity="0.2"/>
<path d="M16.2501 1.7417L17.4251 2.9167L13.6751 6.6667H16.6667V8.33337H10.8334V2.50003H12.5001V5.4917L16.2501 1.7417ZM17.4251 15.4167L16.2501 16.5917L12.5001 12.8417V15.8334H10.8334V10H16.6667V11.6667H13.6751L17.4251 15.4167ZM3.75007 1.7417L7.50007 5.4917V2.50003H9.16674V8.33337H3.33341V6.6667H6.32507L2.57507 2.9167L3.75007 1.7417ZM2.57507 15.4167L6.32507 11.6667H3.33341V10H9.16674V15.8334H7.50007V12.8417L3.75007 16.5917L2.57507 15.4167Z" fill="currentColor" fill-opacity="0.2"/>
<path d="M16.2501 1.7417L17.4251 2.9167L13.6751 6.6667H16.6667V8.33337H10.8334V2.50003H12.5001V5.4917L16.2501 1.7417ZM17.4251 15.4167L16.2501 16.5917L12.5001 12.8417V15.8334H10.8334V10H16.6667V11.6667H13.6751L17.4251 15.4167ZM3.75007 1.7417L7.50007 5.4917V2.50003H9.16674V8.33337H3.33341V6.6667H6.32507L2.57507 2.9167L3.75007 1.7417ZM2.57507 15.4167L6.32507 11.6667H3.33341V10H9.16674V15.8334H7.50007V12.8417L3.75007 16.5917L2.57507 15.4167Z" fill="currentColor" fill-opacity="0.2"/>
<path d="M16.2501 1.7417L17.4251 2.9167L13.6751 6.6667H16.6667V8.33337H10.8334V2.50003H12.5001V5.4917L16.2501 1.7417ZM17.4251 15.4167L16.2501 16.5917L12.5001 12.8417V15.8334H10.8334V10H16.6667V11.6667H13.6751L17.4251 15.4167ZM3.75007 1.7417L7.50007 5.4917V2.50003H9.16674V8.33337H3.33341V6.6667H6.32507L2.57507 2.9167L3.75007 1.7417ZM2.57507 15.4167L6.32507 11.6667H3.33341V10H9.16674V15.8334H7.50007V12.8417L3.75007 16.5917L2.57507 15.4167Z" fill="currentColor" fill-opacity="0.2"/>
<path d="M16.2501 1.7417L17.4251 2.9167L13.6751 6.6667H16.6667V8.33337H10.8334V2.50003H12.5001V5.4917L16.2501 1.7417ZM17.4251 15.4167L16.2501 16.5917L12.5001 12.8417V15.8334H10.8334V10H16.6667V11.6667H13.6751L17.4251 15.4167ZM3.75007 1.7417L7.50007 5.4917V2.50003H9.16674V8.33337H3.33341V6.6667H6.32507L2.57507 2.9167L3.75007 1.7417ZM2.57507 15.4167L6.32507 11.6667H3.33341V10H9.16674V15.8334H7.50007V12.8417L3.75007 16.5917L2.57507 15.4167Z" fill="currentColor" fill-opacity="0.2"/>
<path d="M16.2501 1.7417L17.4251 2.9167L13.6751 6.6667H16.6667V8.33337H10.8334V2.50003H12.5001V5.4917L16.2501 1.7417ZM17.4251 15.4167L16.2501 16.5917L12.5001 12.8417V15.8334H10.8334V10H16.6667V11.6667H13.6751L17.4251 15.4167ZM3.75007 1.7417L7.50007 5.4917V2.50003H9.16674V8.33337H3.33341V6.6667H6.32507L2.57507 2.9167L3.75007 1.7417ZM2.57507 15.4167L6.32507 11.6667H3.33341V10H9.16674V15.8334H7.50007V12.8417L3.75007 16.5917L2.57507 15.4167Z" fill="currentColor" fill-opacity="0.2"/>
</svg>
