<svg width="45" height="45" viewBox="0 0 45 45" fill="none" xmlns="http://www.w3.org/2000/svg">
<circle cx="22.4998" cy="22.4998" r="22.4998" fill="#ECF5FF"/>
<g clip-path="url(#clip0_1_747)">
<path d="M17.2384 17.1495H17.2477M17.2384 28.3102H17.2477M15.3783 13.4293H30.2591C31.2864 13.4293 32.1192 14.2621 32.1192 15.2894V19.0096C32.1192 20.037 31.2864 20.8698 30.2591 20.8698H15.3783C14.351 20.8698 13.5182 20.037 13.5182 19.0096V15.2894C13.5182 14.2621 14.351 13.4293 15.3783 13.4293ZM15.3783 24.59H30.2591C31.2864 24.59 32.1192 25.4228 32.1192 26.4501V30.1703C32.1192 31.1976 31.2864 32.0304 30.2591 32.0304H15.3783C14.351 32.0304 13.5182 31.1976 13.5182 30.1703V26.4501C13.5182 25.4228 14.351 24.59 15.3783 24.59Z" stroke="#3994FF" stroke-width="2.1875" stroke-linecap="round" stroke-linejoin="round"/>
</g>
<defs>
<clipPath id="clip0_1_747">
<rect width="22.3214" height="22.3214" fill="white" transform="translate(11.6581 11.5692)"/>
</clipPath>
</defs>
</svg>
