<svg width="25" height="25" viewBox="0 0 25 25" fill="none" xmlns="http://www.w3.org/2000/svg">
<path d="M0 12.5C0 5.59644 5.59644 0 12.5 0C19.4036 0 25 5.59644 25 12.5C25 19.4036 19.4036 25 12.5 25C5.59644 25 0 19.4036 0 12.5Z" fill="#FF9500"/>
<g clip-path="url(#clip0_1_725)">
<path d="M14.2358 10.4825L10.7635 14.2441M10.7635 10.4825L14.2358 14.2441M18.0552 13.1156C18.0552 16.8772 15.6246 18.758 12.7358 19.8489C12.5845 19.9044 12.4202 19.9017 12.2705 19.8413C9.37465 18.758 6.94409 16.8772 6.94409 13.1156V7.84944C6.94409 7.64992 7.01726 7.45856 7.14749 7.31747C7.27772 7.17639 7.45436 7.09713 7.63854 7.09713C9.02742 7.09713 10.7635 6.19435 11.9719 5.05083C12.119 4.91466 12.3061 4.83984 12.4996 4.83984C12.6932 4.83984 12.8803 4.91466 13.0274 5.05083C14.2427 6.20187 15.9719 7.09713 17.3608 7.09713C17.5449 7.09713 17.7216 7.17639 17.8518 7.31747C17.982 7.45856 18.0552 7.64992 18.0552 7.84944V13.1156Z" stroke="#FFF8F7" stroke-width="1.46" stroke-linecap="round" stroke-linejoin="round"/>
</g>
<defs>
<clipPath id="clip0_1_725">
<rect width="17.5" height="17.5" fill="white" transform="translate(3.75 3.75)"/>
</clipPath>
</defs>
</svg>
