<svg width="58" height="59" viewBox="0 0 58 59" fill="none" xmlns="http://www.w3.org/2000/svg">
<circle cx="26.4601" cy="32.46" r="26.4601" fill="#FFF1F0"/>
<path d="M16.1268 32.5499C16.1268 33.9865 16.6975 35.3642 17.7133 36.38C18.7291 37.3959 20.1069 37.9666 21.5435 37.9666C23.5452 38.0411 25.4592 38.8067 26.9602 40.1332C28.4611 38.8067 30.3751 38.0411 32.3768 37.9666C33.8134 37.9666 35.1912 37.3959 36.207 36.38C37.2228 35.3642 37.7935 33.9865 37.7935 32.5499V27.1332H32.3768C30.3751 27.2077 28.4611 27.9734 26.9602 29.2998C25.4592 27.9734 23.5452 27.2077 21.5435 27.1332H16.1268V32.5499Z" stroke="#E6372B" stroke-width="1.625" stroke-linecap="round" stroke-linejoin="round"/>
<path d="M20.4601 31.4665C22.0851 31.4665 23.7101 32.0082 23.7101 33.6332C21.5435 33.6332 20.4601 33.6332 20.4601 31.4665Z" stroke="#E6372B" stroke-width="1.625" stroke-linecap="round" stroke-linejoin="round"/>
<path d="M33.4602 31.4665C31.8352 31.4665 30.2102 32.0082 30.2102 33.6332C32.3768 33.6332 33.4602 33.6332 33.4602 31.4665Z" stroke="#E6372B" stroke-width="1.625" stroke-linecap="round" stroke-linejoin="round"/>
<circle cx="47" cy="11" r="10.5" fill="#7A44FF" stroke="#FAFAFA"/>
<mask id="mask0_1_377" style="mask-type:alpha" maskUnits="userSpaceOnUse" x="41" y="3" width="14" height="14">
<rect x="41.0002" y="3.99989" width="13.0001" height="13.0001" fill="#D9D9D9"/>
</mask>
<g mask="url(#mask0_1_377)">
<path d="M41.5417 14.8335V13.3168C41.5417 13.0099 41.6207 12.7277 41.7787 12.4704C41.9366 12.2132 42.1465 12.0168 42.4083 11.8814C42.9681 11.6015 43.5368 11.3916 44.1146 11.2517C44.6924 11.1118 45.2792 11.0418 45.875 11.0418C46.4709 11.0418 47.0577 11.1118 47.6355 11.2517C48.2132 11.3916 48.782 11.6015 49.3417 11.8814C49.6035 12.0168 49.8134 12.2132 49.9714 12.4704C50.1294 12.7277 50.2084 13.0099 50.2084 13.3168V14.8335H41.5417ZM51.2917 14.8335V13.2085C51.2917 12.8112 51.1811 12.4298 50.9599 12.0642C50.7388 11.6986 50.425 11.3849 50.0188 11.123C50.4792 11.1772 50.9126 11.2697 51.3188 11.4006C51.7251 11.5316 52.1042 11.6918 52.4563 11.8814C52.7813 12.0619 53.0296 12.2628 53.2011 12.484C53.3726 12.7052 53.4584 12.9467 53.4584 13.2085V14.8335H51.2917ZM45.875 10.5001C45.2792 10.5001 44.7691 10.288 44.3448 9.86366C43.9205 9.43936 43.7084 8.92929 43.7084 8.33345C43.7084 7.73761 43.9205 7.22754 44.3448 6.80324C44.7691 6.37893 45.2792 6.16677 45.875 6.16677C46.4709 6.16677 46.9809 6.37893 47.4052 6.80324C47.8296 7.22754 48.0417 7.73761 48.0417 8.33345C48.0417 8.92929 47.8296 9.43936 47.4052 9.86366C46.9809 10.288 46.4709 10.5001 45.875 10.5001ZM51.2917 8.33345C51.2917 8.92929 51.0796 9.43936 50.6553 9.86366C50.231 10.288 49.7209 10.5001 49.125 10.5001C49.0257 10.5001 48.8993 10.4888 48.7459 10.4663C48.5924 10.4437 48.466 10.4189 48.3667 10.3918C48.6105 10.1029 48.7978 9.78241 48.9287 9.43033C49.0596 9.07824 49.125 8.71262 49.125 8.33345C49.125 7.95428 49.0596 7.58865 48.9287 7.23657C48.7978 6.88449 48.6105 6.564 48.3667 6.27511C48.4931 6.22997 48.6195 6.20063 48.7459 6.18709C48.8723 6.17354 48.9987 6.16677 49.125 6.16677C49.7209 6.16677 50.231 6.37893 50.6553 6.80324C51.0796 7.22754 51.2917 7.73761 51.2917 8.33345ZM42.625 13.7501H49.125V13.3168C49.125 13.2175 49.1002 13.1272 49.0506 13.046C49.0009 12.9647 48.9355 12.9015 48.8542 12.8564C48.3667 12.6126 47.8747 12.4298 47.3782 12.3079C46.8816 12.1861 46.3806 12.1251 45.875 12.1251C45.3695 12.1251 44.8684 12.1861 44.3719 12.3079C43.8754 12.4298 43.3834 12.6126 42.8959 12.8564C42.8146 12.9015 42.7491 12.9647 42.6995 13.046C42.6498 13.1272 42.625 13.2175 42.625 13.3168V13.7501ZM45.875 9.41679C46.1729 9.41679 46.428 9.31071 46.6401 9.09856C46.8523 8.8864 46.9584 8.63137 46.9584 8.33345C46.9584 8.03553 46.8523 7.7805 46.6401 7.56834C46.428 7.35619 46.1729 7.25011 45.875 7.25011C45.5771 7.25011 45.3221 7.35619 45.1099 7.56834C44.8978 7.7805 44.7917 8.03553 44.7917 8.33345C44.7917 8.63137 44.8978 8.8864 45.1099 9.09856C45.3221 9.31071 45.5771 9.41679 45.875 9.41679Z" fill="white"/>
</g>
</svg>
