<svg width="54" height="53" viewBox="0 0 54 53" fill="none" xmlns="http://www.w3.org/2000/svg">
<circle cx="26.4998" cy="26.4998" r="26.4998" fill="#D7EAFF"/>
<path d="M19.0567 20.7012H19.0676M19.0567 31.5813H19.0676M16.8659 17.0745H34.3922C35.6022 17.0745 36.583 17.8863 36.583 18.8878V22.5145C36.583 23.516 35.6022 24.3279 34.3922 24.3279H16.8659C15.656 24.3279 14.6751 23.516 14.6751 22.5145V18.8878C14.6751 17.8863 15.656 17.0745 16.8659 17.0745ZM16.8659 27.9546H34.3922C35.6022 27.9546 36.583 28.7664 36.583 29.7679V33.3946C36.583 34.3961 35.6022 35.208 34.3922 35.208H16.8659C15.656 35.208 14.6751 34.3961 14.6751 33.3946V29.7679C14.6751 28.7664 15.656 27.9546 16.8659 27.9546Z" stroke="#1873DE" stroke-width="1.81062" stroke-linecap="round" stroke-linejoin="round"/>
</svg>
