<svg width="45" height="43" viewBox="0 0 45 43" fill="none" xmlns="http://www.w3.org/2000/svg">
<circle cx="19.9891" cy="23.0107" r="19.9891" fill="#D7EAFF"/>
<g clip-path="url(#clip0_1_975)">
<path d="M15.3143 18.2571H15.3225M15.3143 28.1724H15.3225M13.6617 14.9521H26.882C27.7947 14.9521 28.5346 15.6919 28.5346 16.6046V19.9097C28.5346 20.8223 27.7947 21.5622 26.882 21.5622H13.6617C12.7491 21.5622 12.0092 20.8223 12.0092 19.9097V16.6046C12.0092 15.6919 12.7491 14.9521 13.6617 14.9521ZM13.6617 24.8673H26.882C27.7947 24.8673 28.5346 25.6072 28.5346 26.5198V29.8249C28.5346 30.7376 27.7947 31.4774 26.882 31.4774H13.6617C12.7491 31.4774 12.0092 30.7376 12.0092 29.8249V26.5198C12.0092 25.6072 12.7491 24.8673 13.6617 24.8673Z" stroke="#1873DE" stroke-width="1.64062" stroke-linecap="round" stroke-linejoin="round"/>
</g>
<rect x="24.8695" width="19.6209" height="19.6209" rx="9.73975" fill="#E6372B"/>
<g clip-path="url(#clip1_1_975)">
<path d="M36.3006 8.29864L33.2755 11.3238M33.2755 8.29864L36.3006 11.3238M39.6283 10.4162C39.6283 13.4414 37.5107 14.954 34.9938 15.8313C34.862 15.8759 34.7188 15.8738 34.5884 15.8252C32.0654 14.954 29.9478 13.4414 29.9478 10.4162V6.18104C29.9478 6.02057 30.0116 5.86668 30.125 5.75322C30.2385 5.63975 30.3924 5.57601 30.5529 5.57601C31.7629 5.57601 33.2755 4.84997 34.3282 3.93033C34.4564 3.82082 34.6195 3.76065 34.7881 3.76065C34.9567 3.76065 35.1197 3.82082 35.2479 3.93033C36.3067 4.85602 37.8132 5.57601 39.0233 5.57601C39.1837 5.57601 39.3376 5.63975 39.4511 5.75322C39.5646 5.86668 39.6283 6.02057 39.6283 6.18104V10.4162Z" stroke="#FFF8F7" stroke-width="1.09566" stroke-linecap="round" stroke-linejoin="round"/>
</g>
<defs>
<clipPath id="clip0_1_975">
<rect width="19.6875" height="19.6875" fill="white" transform="translate(10.3569 13.2997) scale(1.00726)"/>
</clipPath>
<clipPath id="clip1_1_975">
<rect width="14.416" height="14.416" fill="white" transform="translate(27.5278 2.54988) scale(1.00726)"/>
</clipPath>
</defs>
</svg>
